<svg version="1.2" xmlns="http://www.w3.org/2000/svg" viewBox="0 0 250 250" width="250" height="250">
	<title>aws-svg</title>
	<style>
		.s0 { fill: #ff9900 } 
		.s1 { fill: #ffffff } 
	</style>
	<path id="Layer" class="s0" d="m213.5 164.5c-23.2 17.1-56.8 26.2-85.8 26.2-40.6 0-77.1-15-104.8-39.9-2.1-2-0.2-4.7 2.4-3.1 29.9 17.3 66.8 27.8 104.9 27.8 25.7 0 53.9-5.4 79.9-16.4 3.9-1.7 7.2 2.6 3.4 5.4z"/>
	<path id="aws" fill-rule="evenodd" class="s1" d="m67.4 98.1v32.9h-15.7v-7.2c-3.1 5.3-9.1 8.1-17.5 8.1-13.6 0-21.6-7.6-21.6-17.5 0-10.2 7.2-17.3 24.8-17.3h13.3c0-7.2-4.3-11.4-13.3-11.4-6.1 0-12.5 2.1-16.7 5.4l-6-11.7c6.4-4.5 15.7-7 24.9-7 17.6 0 27.8 8.2 27.8 25.7zm-16.7 14.7v-5.9h-11.5c-7.8 0-10.3 2.9-10.3 6.7 0 4.2 3.5 7 9.4 7 5.6 0 10.4-2.6 12.4-7.8zm131.3-39.5l-20.9 57.7h-16.1l-13-35.8-13.4 35.8h-16.1l-20.8-57.7h15.7l13.7 39 14.1-39h14.2l13.7 39 14.1-39zm9.2 52.3l5.6-12c5.1 3.3 13 5.6 20 5.6 7.8 0 10.7-2 10.7-5.3 0-9.4-34.9 0.3-34.9-22.8 0-10.9 9.9-18.7 26.7-18.7 7.9 0 16.7 1.8 22.2 5.1l-5.6 11.9c-5.6-3.2-11.3-4.3-16.6-4.3-7.5 0-10.7 2.3-10.7 5.3 0 9.9 34.8 0.4 34.8 23.1 0 10.7-9.9 18.4-27.2 18.4-9.8 0-19.6-2.7-25-6.3z"/>
	<path id="Layer" class="s0" d="m223.2 153.5c-3-3.8-19.6-1.8-27.2-0.9-2.2 0.3-2.6-1.7-0.5-3.2 13.2-9.3 35-6.6 37.5-3.5 2.6 3.2-0.7 24.9-13.1 35.4-1.9 1.6-3.7 0.7-2.9-1.4 2.9-7 9.1-22.7 6.2-26.4z"/>
</svg>