<svg version="1.2" xmlns="http://www.w3.org/2000/svg" viewBox="0 0 300 41" width="300" height="41">
	<title>logo-svg</title>
	<style>
		.s0 { fill: #ffffff } 
	</style>
	<path id="Layer" class="s0" d=""/>
	<path id="ALICIA BASULTO BASULTO" fill-rule="evenodd" class="s0" d="m20.3 32.3l-1.7-5.2h-9.5l-1.8 5.1h-5.3l9.1-25.5h5.8l8.8 25.6zm-9.8-9.6h6.7l-3.3-9.9zm18.3-16h5.3l-0.1 21.2h12.3l-0.1 4.4-17.4-0.1zm21.6 0.1h5.3l-0.1 25.5h-5.2zm31.7 8.7h-5q-1-4.6-5.4-4.6-3.1 0-4.9 2.4-1.8 2.4-1.8 6.6 0 4.2 1.7 6.5 1.7 2.4 4.7 2.4 2.5 0 4-1.3 1.4-1.4 1.7-3.8h5.1q-0.3 4.4-3.2 7-3 2.5-7.7 2.5-5.3 0-8.4-3.6-3.1-3.6-3.1-9.8 0-6.2 3.2-9.8 3.1-3.6 8.5-3.5 4.5 0 7.4 2.4 2.9 2.4 3.2 6.6zm4.3-8.6h5.3l-0.1 25.5h-5.2zm26.6 25.6l-1.7-5.1-9.5-0.1-1.7 5.2h-5.4l9.1-25.5h5.9l8.7 25.5zm-9.7-9.5h6.6l-3.3-10zm48.5 2.3q0 1.3-0.4 2.5-0.5 1.2-1.4 2.3-0.9 1.2-2.8 1.9-1.8 0.7-4.4 0.7l-11.5-0.1 0.1-25.5h11.4q2.3 0 4.1 0.8 1.7 0.7 2.5 1.8 0.9 1.1 1.3 2.1 0.4 1.1 0.4 2.1 0 1.6-0.8 2.8-0.8 1.2-2.7 2.4 4.2 2.5 4.2 6.2zm-9.5-13.8h-5.7v5.8h5.7q3.7 0 3.7-2.9 0-2.9-3.7-2.9zm0.6 10.2l-6.3-0.1v6.7h6.2q3.9 0 3.9-3.3 0.1-3.3-3.8-3.3zm28.9 11l-1.6-5.1h-9.6l-1.7 5.1h-5.4l9.1-25.5h5.9l8.7 25.6zm-9.7-9.6h6.6l-3.3-10zm37.1-8.1h-4.9q-0.3-4-5.4-4-2 0-3.2 0.9-1.2 0.8-1.2 2.2 0 1.4 1 2.1 1 0.7 3.8 1.3l4 0.8q3.6 0.7 5.2 2.4 1.6 1.6 1.6 4.6-0.1 3.9-2.8 6.1-2.8 2.2-7.7 2.1-4.9 0-7.7-2.1-2.6-2.2-2.9-6.3h5.1q0.2 2.1 1.6 3.1 1.5 1.1 4.2 1.1 2.3 0.1 3.7-0.9 1.4-0.9 1.4-2.5 0-1.5-1.1-2.4-1-0.8-3.7-1.3l-3.5-0.7q-3.9-0.8-5.6-2.3-1.6-1.6-1.6-4.6 0-3.7 2.5-5.8 2.6-2 7.2-2 1.3 0 2.5 0.2 1.3 0.2 2.7 0.7 1.4 0.6 2.4 1.4 1 0.9 1.7 2.4 0.7 1.5 0.7 3.5zm17.8 18.4q-1.3 0.2-2.7 0.2-1.4 0-2.7-0.2-1.3-0.3-2.7-0.9-1.3-0.7-2.3-1.6-1.1-1-1.7-2.6-0.6-1.7-0.6-3.7v-17.3h5.3l-0.1 17.3q0 4.5 4.9 4.5 4.8 0 4.8-4.5l0.1-17.3h5.2v17.3q0 2.1-0.7 3.7-0.6 1.6-1.6 2.6-1.1 1-2.5 1.6-1.3 0.6-2.7 0.9zm13.1-26.1l5.3 0.1-0.1 21.1h12.2v4.4h-17.4zm40.3 4.4h-7.4l-0.1 21.2-5.3-0.1 0.1-21.1h-7.7v-4.4l20.4 0.1zm5.8 18.2q-3.4-3.8-3.4-9.6 0.1-5.9 3.4-9.7 3.4-3.7 8.9-3.7 5.6 0 8.9 3.8 3.4 3.7 3.4 9.8 0 5.7-3.4 9.4-3.3 3.8-8.9 3.8-5.6-0.1-8.9-3.8zm9-18.5q-3.2 0-5.2 2.4-1.9 2.4-1.9 6.5 0 4 1.9 6.4 1.9 2.5 5.1 2.5 3.2 0 5.1-2.4 2-2.4 2-6.4 0-4.1-1.9-6.5-1.9-2.5-5.1-2.5z"/>
</svg>