<svg version="1.2" xmlns="http://www.w3.org/2000/svg" viewBox="0 0 842 596" width="842" height="596">
	<title>logo-svg</title>
	<defs>
		<linearGradient id="g1" x2="1" gradientUnits="userSpaceOnUse" gradientTransform="matrix(534,0,0,534,157,298)">
			<stop offset="0" stop-color="#4e5ac1"/>
			<stop offset=".02" stop-color="#4e5ac1"/>
			<stop offset=".936" stop-color="#de9b26"/>
			<stop offset="1" stop-color="#de9b26"/>
		</linearGradient>
		<linearGradient id="g2" x2="1" gradientUnits="userSpaceOnUse" gradientTransform="matrix(88,0,0,87,175,123.5)">
			<stop offset="0" stop-color="#4e5ac1"/>
			<stop offset=".02" stop-color="#4e5ac1"/>
			<stop offset=".936" stop-color="#de9b26"/>
			<stop offset="1" stop-color="#de9b26"/>
		</linearGradient>
	</defs>
	<style>
		.s0 { fill: #61dafb } 
		.s1 { fill: #de9b26 } 
		.s2 { fill: none;stroke: url(#g1);stroke-miterlimit:100;stroke-width: 25 } 
		.s3 { fill: none;stroke: url(#g2);stroke-miterlimit:100;stroke-width: 25 } 
	</style>
	<g id="Layer">
		<path id="Layer" class="s0" d=""/>
		<path id="ab" fill-rule="evenodd" class="s1" d="m386.8 299.6v107.4h-51.1v-23.5c-10.2 17.2-29.8 26.3-57.4 26.3-44.1 0-70.4-24.5-70.4-57.1 0-33.2 23.5-56.3 80.9-56.3h43.4c0-23.4-14-37.1-43.4-37.1-19.9 0-40.6 6.7-54.3 17.5l-19.6-38.2c20.7-14.7 51.1-22.7 81.2-22.7 57.4 0 90.7 26.6 90.7 83.6zm-54.6 48v-19.3h-37.5c-25.5 0-33.6 9.5-33.6 22.1 0 13.6 11.6 22.7 30.8 22.7 18.2 0 34-8.4 40.3-25.5zm309.1-34.6c-0.1 59.1-41 96.9-93.8 96.9-25.3 0-45.5-8.1-59.2-24.5v21.7h-52.2v-259.7h54.6v91.3c14-15.4 33.3-22.7 56.8-22.7 52.8 0 93.7 37.8 93.7 96.9zm-55.2 0c0-32.5-20.7-52.1-48-52.1-27.3 0-48 19.6-48 52.1 0 32.6 20.7 52.2 48 52.2 27.3 0 48-19.6 48-52.2z"/>
		<path id="Forma 1" class="s2" d="m424 565c-147.7 0-267-119.3-267-267 0-147.7 119.3-267 267-267 147.7 0 267 119.3 267 267 0 147.7-119.3 267-267 267z"/>
		<path id="Forma 2 copy" class="s3" d="m219 167c-24.3 0-44-19.4-44-43.5 0-24.1 19.7-43.5 44-43.5 24.3 0 44 19.4 44 43.5 0 24.1-19.7 43.5-44 43.5z"/>
	</g>
</svg>